<svg xmlns="http://www.w3.org/2000/svg" version="1.1" xmlns:xlink="http://www.w3.org/1999/xlink" width="512" height="512" x="0" y="0" viewBox="0 0 24 24" style="enable-background:new 0 0 512 512" xml:space="preserve" class=""><g><path d="M12.009 23.665a2.01 2.01 0 0 1-1.337-.507l-3.748-3.157H4.001c-2.206 0-4-1.794-4-4V4A4.003 4.003 0 0 1 4 0h16c2.206 0 4 1.794 4 4v12c0 2.206-1.794 4-4 4h-2.852l-3.847 3.18a1.94 1.94 0 0 1-1.293.484ZM4 2c-1.103 0-2 .897-2 2v12c0 1.103.897 2 2 2h3.289c.236 0 .464.083.645.235l4.047 3.41 4.17-3.416c.18-.148.405-.229.638-.229h3.212c1.103 0 2-.897 2-2V4c0-1.103-.897-2-2-2H4Z" fill="#f3f4f6" opacity="1" data-original="#000000" class=""></path></g></svg>