<svg xmlns="http://www.w3.org/2000/svg" version="1.1" xmlns:xlink="http://www.w3.org/1999/xlink" width="512" height="512" x="0" y="0" viewBox="0 0 24 24" style="enable-background:new 0 0 512 512" xml:space="preserve" class=""><g><path d="M12.014 23.666c-.595 0-1.196-.21-1.675-.636L6.741 20H5.5A5.506 5.506 0 0 1 0 14.5v-9C0 2.467 2.467 0 5.5 0h13C21.532 0 24 2.467 24 5.5v9c0 3.033-2.468 5.5-5.5 5.5h-1.171l-3.708 3.065a2.409 2.409 0 0 1-1.606.601Zm-.318-2.901-.028.023.028-.023Zm.59-.017.016.014-.016-.014ZM5.5 3A2.503 2.503 0 0 0 3 5.5v9C3 15.878 4.122 17 5.5 17h1.789c.354 0 .696.125.966.353l3.749 3.158 3.829-3.167c.27-.222.607-.344.956-.344H18.5c1.379 0 2.5-1.122 2.5-2.5v-9C21 4.122 19.879 3 18.5 3h-13Z" fill="#d1d5dc" opacity="1" data-original="#000000" class=""></path></g></svg>