<svg width="24" height="24" viewBox="0 0 24 24" fill="none" xmlns="http://www.w3.org/2000/svg">
<g clip-path="url(#clip0_70_4)">
<path d="M23.707 22.293L19.929 18.515L21.115 6.00001H22C22.552 6.00001 23 5.55301 23 5.00001C23 4.44701 22.552 4.00001 22 4.00001H17.899C17.434 1.72101 15.414 5.84871e-06 13 5.84871e-06H11C8.58601 5.84871e-06 6.56501 1.72101 6.10101 4.00001C6.10101 4.00001 5.44501 4.00101 5.41801 4.00401L1.70701 0.293006C1.31601 -0.0979941 0.684006 -0.0979941 0.293006 0.293006C-0.0979941 0.684006 -0.0979941 1.31601 0.293006 1.70701L22.293 23.707C22.488 23.902 22.744 24 23 24C23.256 24 23.512 23.902 23.707 23.707C24.098 23.316 24.098 22.684 23.707 22.293ZM18.094 16.68L7.41401 6.00001H19.106L18.094 16.68ZM11 2.00001H13C14.304 2.00001 15.415 2.83601 15.828 4.00001H8.17201C8.58501 2.83601 9.69601 2.00001 11 2.00001ZM17.845 21.845C18.14 22.311 18.002 22.929 17.536 23.225C16.736 23.732 15.811 24 14.861 24H9.13401C6.54501 24 4.40501 22.057 4.15701 19.479L3.25501 10.096C3.20201 9.54601 3.60501 9.05801 4.15501 9.00501C4.71701 8.93701 5.19301 9.35501 5.24601 9.90401L6.14801 19.287C6.29601 20.834 7.58001 22 9.13401 22H14.861C15.431 22 15.986 21.839 16.465 21.535C16.932 21.238 17.55 21.378 17.845 21.845Z" fill="white"/>
</g>
<defs>
<clipPath id="clip0_70_4">
<rect width="24" height="24" fill="white"/>
</clipPath>
</defs>
</svg>
